# xmcd
#
# Track frame offsets:
#	150
#	10441
#	22142
#	34578
#	44628
#	56297
#	66213
#	79746
#	90953
#	104676
#	114520
#	125170
#	138825
#	149572
#	163130
#	176530
#	187898
#	198186
#	207806
#	218134
#	229844
#
# Disc length: 3220 seconds
#
# Revision: 0
# Processed by: cddbd v1.5.1PL0 Copyright (c) Steve Scherf et al.
# Submitted via: EasyCDDAExtractor 8.1.4.1
#
DISCID=2d0c9215
DTITLE=Guitar Slim - The Chronological Guitar Slim (1951-1954)
DYEAR=1900
DGENRE=Blues
TTITLE0=Bad Luck Is On Me (Woman Trouble)
TTITLE1=New Arrival
TTITLE2=Standin' at the Station
TTITLE3=Cryin in the Morning
TTITLE4=Feelin' Sad
TTITLE5=Certainly All
TTITLE6=The Things that I Used to Do
TTITLE7=Well I Done Got Over It
TTITLE8=The Story of my Life
TTITLE9=A Letter to my Girlfriend
TTITLE10=Certainly All
TTITLE11=Going Down Slow
TTITLE12=Later for you Baby
TTITLE13=Trouble Don't Last
TTITLE14=Back Luck Blues
TTITLE15=Sufferin' Mind
TTITLE16=Twenty-five Lies
TTITLE17=Our Only Child
TTITLE18=Stand By Me
TTITLE19=Guitar Slim
TTITLE20=Reap What You Sow
EXTD=
EXTT0=
EXTT1=
EXTT2=
EXTT3=
EXTT4=
EXTT5=
EXTT6=
EXTT7=
EXTT8=
EXTT9=
EXTT10=
EXTT11=
EXTT12=
EXTT13=
EXTT14=
EXTT15=
EXTT16=
EXTT17=
EXTT18=
EXTT19=
EXTT20=
PLAYORDER=
